# xmcd
#
# Track frame offsets:
#	150
#	18120
#	33434
#	51092
#	68450
#	85150
#	100690
#	116055
#	135982
#	151814
#	170496
#
# Disc length: 2493 seconds
#
# Revision: 0
# Processed by: cddbd v1.5.2PL0 Copyright (c) Steve Scherf et al.
# Submitted via: EasyCDDAExtractor 8.1.0.1
#
DISCID=7909bb0b
DTITLE=Casey Donahew Band
DYEAR=2006
DGENRE=Country
TTITLE0=Let You Down
TTITLE1=No Doubt
TTITLE2=Fallen
TTITLE3=Run Away Train
TTITLE4=Better Off Alone
TTITLE5=Love Me Right
TTITLE6=Where The Rain Can't Find Me
TTITLE7=Shine On Me
TTITLE8=Crash
TTITLE9=Hangovers And Memories
TTITLE10=White Trash Story
EXTD=
EXTT0=
EXTT1=
EXTT2=
EXTT3=
EXTT4=
EXTT5=
EXTT6=
EXTT7=
EXTT8=
EXTT9=
EXTT10=
PLAYORDER=
